<svg xmlns="http://www.w3.org/2000/svg" xmlns:xlink="http://www.w3.org/1999/xlink" version="1.2" width="128.96mm" height="14.62mm" viewBox="8.5358 0.0000 73.3865 8.3214">
<rect transform="translate(0.0000, 7.0000)" x="63.6436" y="-0.1000" width="1.9743" height="0.2000" ry="0.1000" fill="currentColor"/>
<line transform="translate(8.5358, 6.0000)" stroke-linejoin="round" stroke-linecap="round" stroke-width="0.1000" stroke="currentColor" x1="0.0500" y1="-0.0000" x2="73.3365" y2="-0.0000"/>
<line transform="translate(8.5358, 5.0000)" stroke-linejoin="round" stroke-linecap="round" stroke-width="0.1000" stroke="currentColor" x1="0.0500" y1="-0.0000" x2="73.3365" y2="-0.0000"/>
<line transform="translate(8.5358, 4.0000)" stroke-linejoin="round" stroke-linecap="round" stroke-width="0.1000" stroke="currentColor" x1="0.0500" y1="-0.0000" x2="73.3365" y2="-0.0000"/>
<line transform="translate(8.5358, 3.0000)" stroke-linejoin="round" stroke-linecap="round" stroke-width="0.1000" stroke="currentColor" x1="0.0500" y1="-0.0000" x2="73.3365" y2="-0.0000"/>
<line transform="translate(8.5358, 2.0000)" stroke-linejoin="round" stroke-linecap="round" stroke-width="0.1000" stroke="currentColor" x1="0.0500" y1="-0.0000" x2="73.3365" y2="-0.0000"/>
<rect transform="translate(81.7323, 4.0000)" x="0.0000" y="-2.0500" width="0.1900" height="4.1000" ry="0.0000" fill="currentColor"/>
<rect transform="translate(50.1184, 4.0000)" x="0.0000" y="-2.0500" width="0.1900" height="4.1000" ry="0.0000" fill="currentColor"/>
<path transform="translate(63.9726, 7.0000) scale(0.0040, -0.0040)" d="M220 138c66 0 109 -37 109 -91c0 -90 -113 -185 -220 -185c-66 0 -109 37 -109 91c0 90 113 185 220 185z" fill="currentColor"/>
<rect transform="translate(65.2238, 4.0000)" x="-0.0650" y="-2.0000" width="0.1300" height="4.8122" ry="0.0400" fill="currentColor"/>
<path transform="translate(66.4888, 6.5000) scale(0.0040, -0.0040)" d="M220 138c66 0 109 -37 109 -91c0 -90 -113 -185 -220 -185c-66 0 -109 37 -109 91c0 90 113 185 220 185z" fill="currentColor"/>
<polygon transform="translate(52.4446, 1.1859)" stroke-linejoin="round" stroke-linecap="round" stroke-width="0.0800" fill="currentColor" stroke="currentColor" points="12.8042 0.6183 12.8042 1.0183 0.0400 0.2000 0.0400 -0.2000"/>
<polygon transform="translate(52.4446, 1.9959)" stroke-linejoin="round" stroke-linecap="round" stroke-width="0.0800" fill="currentColor" stroke="currentColor" points="12.8042 0.6183 12.8042 1.0183 0.0400 0.2000 0.0400 -0.2000"/>
<rect transform="translate(67.7400, 4.0000)" x="-0.0650" y="-2.0000" width="0.1300" height="4.3122" ry="0.0400" fill="currentColor"/>
<path transform="translate(69.0050, 6.0000) scale(0.0040, -0.0040)" d="M220 138c66 0 109 -37 109 -91c0 -90 -113 -185 -220 -185c-66 0 -109 37 -109 91c0 90 113 185 220 185z" fill="currentColor"/>
<rect transform="translate(70.2561, 4.0000)" x="-0.0650" y="-2.3000" width="0.1300" height="4.1122" ry="0.0400" fill="currentColor"/>
<path transform="translate(71.5211, 5.5000) scale(0.0040, -0.0040)" d="M220 138c66 0 109 -37 109 -91c0 -90 -113 -185 -220 -185c-66 0 -109 37 -109 91c0 90 113 185 220 185z" fill="currentColor"/>
<rect transform="translate(72.7723, 4.0000)" x="-0.0650" y="-2.6000" width="0.1300" height="3.9122" ry="0.0400" fill="currentColor"/>
<rect transform="translate(54.7757, 4.0000)" x="-0.0650" y="-2.6656" width="0.1300" height="4.4778" ry="0.0400" fill="currentColor"/>
<path transform="translate(56.3574, 5.5000) scale(0.0040, -0.0040)" d="M220 138c66 0 109 -37 109 -91c0 -90 -113 -185 -220 -185c-66 0 -109 37 -109 91c0 90 113 185 220 185z" fill="currentColor"/>
<rect transform="translate(57.6086, 4.0000)" x="-0.0650" y="-2.4852" width="0.1300" height="3.7973" ry="0.0400" fill="currentColor"/>
<path transform="translate(55.3407, 5.5000) scale(0.0040, -0.0040)" d="M-8 375c8 4 17 7 26 7s17 -3 25 -7l-3 -183l106 20h3c10 0 18 -7 18 -17l7 -570c-8 -4 -16 -7 -25 -7s-17 3 -25 7l3 183l-106 -20h-3c-10 0 -18 7 -18 17zM128 -95l3 207l-92 -17l-3 -207z" fill="currentColor"/>
<path transform="translate(59.1903, 5.0000) scale(0.0040, -0.0040)" d="M220 138c66 0 109 -37 109 -91c0 -90 -113 -185 -220 -185c-66 0 -109 37 -109 91c0 90 113 185 220 185z" fill="currentColor"/>
<rect transform="translate(60.4414, 4.0000)" x="-0.0650" y="-2.3047" width="0.1300" height="3.1169" ry="0.0400" fill="currentColor"/>
<path transform="translate(58.1736, 5.0000) scale(0.0040, -0.0040)" d="M-8 375c8 4 17 7 26 7s17 -3 25 -7l-3 -183l106 20h3c10 0 18 -7 18 -17l7 -570c-8 -4 -16 -7 -25 -7s-17 3 -25 7l3 183l-106 -20h-3c-10 0 -18 7 -18 17zM128 -95l3 207l-92 -17l-3 -207z" fill="currentColor"/>
<path transform="translate(61.7064, 4.5000) scale(0.0040, -0.0040)" d="M220 138c66 0 109 -37 109 -91c0 -90 -113 -185 -220 -185c-66 0 -109 37 -109 91c0 90 113 185 220 185z" fill="currentColor"/>
<rect transform="translate(62.9576, 4.0000)" x="-0.0650" y="-2.1444" width="0.1300" height="2.4566" ry="0.0400" fill="currentColor"/>
<path transform="translate(74.0373, 5.0000) scale(0.0040, -0.0040)" d="M220 138c66 0 109 -37 109 -91c0 -90 -113 -185 -220 -185c-66 0 -109 37 -109 91c0 90 113 185 220 185z" fill="currentColor"/>
<rect transform="translate(75.2885, 4.0000)" x="-0.0650" y="-2.9000" width="0.1300" height="3.7122" ry="0.0400" fill="currentColor"/>
<path transform="translate(76.5535, 4.5000) scale(0.0040, -0.0040)" d="M220 138c66 0 109 -37 109 -91c0 -90 -113 -185 -220 -185c-66 0 -109 37 -109 91c0 90 113 185 220 185z" fill="currentColor"/>
<rect transform="translate(77.8047, 4.0000)" x="-0.0650" y="-3.2000" width="0.1300" height="3.5122" ry="0.0400" fill="currentColor"/>
<path transform="translate(79.0697, 4.0000) scale(0.0040, -0.0040)" d="M220 138c66 0 109 -37 109 -91c0 -90 -113 -185 -220 -185c-66 0 -109 37 -109 91c0 90 113 185 220 185z" fill="currentColor"/>
<rect transform="translate(80.3209, 4.0000)" x="-0.0650" y="-3.5000" width="0.1300" height="3.3122" ry="0.0400" fill="currentColor"/>
<polygon transform="translate(67.6750, 2.0077)" stroke-linejoin="round" stroke-linecap="round" stroke-width="0.0800" fill="currentColor" stroke="currentColor" points="12.6709 -1.7155 12.6709 -1.3155 0.0400 0.2000 0.0400 -0.2000"/>
<polygon transform="translate(67.6750, 2.8177)" stroke-linejoin="round" stroke-linecap="round" stroke-width="0.0800" fill="currentColor" stroke="currentColor" points="12.6709 -1.7155 12.6709 -1.3155 0.0400 0.2000 0.0400 -0.2000"/>
<path transform="translate(9.3358, 5.0000) scale(0.0040, -0.0040)" d="M645 2c0 -102 -65 -214 -190 -249v-32c0 -48 -1 -97 -4 -145c-7 -120 -94 -228 -216 -228c-112 0 -202 92 -202 205c0 58 53 104 112 104c54 0 95 -48 95 -104c0 -52 -43 -95 -95 -95c-12 0 -23 3 -34 8c26 -45 73 -75 127 -75c99 0 165 92 171 191c3 46 4 93 4 139v23
c-31 -5 -62 -6 -78 -6c-189 0 -333 174 -333 374c0 181 132 314 251 452c-39 128 -57 207 -57 380c0 194 146 306 160 306c29 0 155 -222 155 -388c0 -149 -90 -265 -188 -379c23 -73 44 -147 63 -221c1 0 2 1 3 1c155 0 256 -128 256 -261zM454 -205c67 21 121 85 121 167
c0 88 -63 176 -164 191c26 -127 39 -236 43 -358zM338 -219c7 0 45 0 74 4c-4 126 -17 240 -45 370c-86 -5 -135 -61 -135 -122c0 -44 26 -92 82 -124c5 -5 7 -10 7 -15c0 -11 -10 -22 -22 -22c-16 0 -126 63 -126 187c0 91 62 179 170 199c-16 63 -34 125 -53 187
c-109 -125 -218 -250 -218 -415c0 -148 144 -249 266 -249zM406 1103c-100 -53 -163 -157 -163 -270c0 -92 36 -207 43 -230c84 102 155 209 155 341c0 70 -8 102 -35 159z" fill="currentColor"/>
<path transform="translate(12.8358, 2.0000) scale(0.0040, -0.0040)" d="M216 -312c0 -10 -8 -19 -18 -19s-19 9 -19 19v145l-83 -31v-158c0 -10 -9 -19 -19 -19s-18 9 -18 19v145l-32 -12c-2 -1 -5 -1 -7 -1c-11 0 -20 9 -20 20v60c0 8 5 16 13 19l46 16v160l-32 -11c-2 -1 -5 -1 -7 -1c-11 0 -20 9 -20 20v60c0 8 5 15 13 18l46 17v158
c0 10 8 19 18 19s19 -9 19 -19v-145l83 31v158c0 10 9 19 19 19s18 -9 18 -19v-145l32 12c2 1 5 1 7 1c11 0 20 -9 20 -20v-60c0 -8 -5 -16 -13 -19l-46 -16v-160l32 11c2 1 5 1 7 1c11 0 20 -9 20 -20v-60c0 -8 -5 -15 -13 -18l-46 -17v-158zM179 95l-83 -30v-160l83 30
v160z" fill="currentColor"/>
<path transform="translate(15.0858, 6.0145) scale(0.0040, -0.0040)" d="M259 288c27 29 49 62 49 102c0 55 -57 87 -117 87c-47 0 -75 -36 -75 -71c0 -20 10 -40 30 -52zM289 271c57 -33 83 -80 83 -127c0 -73 -66 -144 -189 -144c-94 0 -183 54 -183 140c0 50 39 85 76 120c-41 28 -61 67 -61 106c0 68 61 134 176 134c81 0 161 -38 161 -110
c0 -47 -30 -85 -63 -119zM106 242c-33 -29 -62 -59 -62 -102c0 -69 66 -117 139 -117c54 0 86 42 86 83c0 24 -10 48 -35 62z" fill="currentColor"/>
<path transform="translate(15.1370, 4.0000) scale(0.0040, -0.0040)" d="M170 256c-51 0 -53 -44 -53 -102v-14v-15c0 -58 2 -102 53 -102c57 0 61 51 61 117s-4 116 -61 116zM117 266c17 7 34 13 53 13c101 0 170 -44 170 -139s-69 -140 -170 -140c-112 0 -170 124 -170 250c0 128 72 250 190 250c71 0 138 -39 138 -103c0 -36 -29 -66 -65 -66
s-66 30 -66 66c0 24 39 25 39 49c0 20 -23 31 -46 31c-66 0 -75 -65 -75 -139c0 -24 2 -48 2 -72z" fill="currentColor"/>
<path transform="translate(18.5540, 4.0000)" stroke-linejoin="round" stroke-linecap="round" stroke="currentColor" fill="currentColor" stroke-width="0.0800" d="M29.8805 -1.2000C27.1857 -3.0947 3.5982 -4.5894 0.6858 -3.0500L0.6858 -3.0500C3.6058 -4.7092 27.1933 -3.2145 29.8805 -1.2000z"/>
<rect transform="translate(18.6190, 4.0000)" x="-0.0650" y="-1.3122" width="0.1300" height="4.1222" ry="0.0400" fill="currentColor"/>
<path transform="translate(18.5540, 2.5000) scale(0.0040, -0.0040)" d="M220 138c66 0 109 -37 109 -91c0 -90 -113 -185 -220 -185c-66 0 -109 37 -109 91c0 90 113 185 220 185z" fill="currentColor"/>
<path transform="translate(31.6349, 4.0000) scale(0.0040, -0.0040)" d="M220 138c66 0 109 -37 109 -91c0 -90 -113 -185 -220 -185c-66 0 -109 37 -109 91c0 90 113 185 220 185z" fill="currentColor"/>
<rect transform="translate(31.6999, 4.0000)" x="-0.0650" y="0.1878" width="0.1300" height="2.8122" ry="0.0400" fill="currentColor"/>
<path transform="translate(34.1511, 3.5000) scale(0.0040, -0.0040)" d="M220 138c66 0 109 -37 109 -91c0 -90 -113 -185 -220 -185c-66 0 -109 37 -109 91c0 90 113 185 220 185z" fill="currentColor"/>
<polygon transform="translate(18.5540, 5.9991)" stroke-linejoin="round" stroke-linecap="round" stroke-width="0.0800" fill="currentColor" stroke="currentColor" points="13.1709 -0.0081 13.1709 0.3919 0.0400 0.2000 0.0400 -0.2000"/>
<polygon transform="translate(18.5540, 6.8091)" stroke-linejoin="round" stroke-linecap="round" stroke-width="0.0800" fill="currentColor" stroke="currentColor" points="13.1709 -0.0081 13.1709 0.3919 0.0400 0.2000 0.0400 -0.2000"/>
<rect transform="translate(34.2161, 4.0000)" x="-0.0650" y="-0.3122" width="0.1300" height="3.8122" ry="0.0400" fill="currentColor"/>
<path transform="translate(36.9839, 3.0000) scale(0.0040, -0.0040)" d="M220 138c66 0 109 -37 109 -91c0 -90 -113 -185 -220 -185c-66 0 -109 37 -109 91c0 90 113 185 220 185z" fill="currentColor"/>
<path transform="translate(21.8202, 3.0000) scale(0.0040, -0.0040)" d="M220 138c66 0 109 -37 109 -91c0 -90 -113 -185 -220 -185c-66 0 -109 37 -109 91c0 90 113 185 220 185z" fill="currentColor"/>
<rect transform="translate(21.8852, 4.0000)" x="-0.0650" y="-0.8122" width="0.1300" height="3.6696" ry="0.0400" fill="currentColor"/>
<path transform="translate(20.3702, 3.0000) scale(0.0040, -0.0040)" d="M216 -312c0 -10 -8 -19 -18 -19s-19 9 -19 19v145l-83 -31v-158c0 -10 -9 -19 -19 -19s-18 9 -18 19v145l-32 -12c-2 -1 -5 -1 -7 -1c-11 0 -20 9 -20 20v60c0 8 5 16 13 19l46 16v160l-32 -11c-2 -1 -5 -1 -7 -1c-11 0 -20 9 -20 20v60c0 8 5 15 13 18l46 17v158
c0 10 8 19 18 19s19 -9 19 -19v-145l83 31v158c0 10 9 19 19 19s18 -9 18 -19v-145l32 12c2 1 5 1 7 1c11 0 20 -9 20 -20v-60c0 -8 -5 -16 -13 -19l-46 -16v-160l32 11c2 1 5 1 7 1c11 0 20 -9 20 -20v-60c0 -8 -5 -15 -13 -18l-46 -17v-158zM179 95l-83 -30v-160l83 30
v160z" fill="currentColor"/>
<rect transform="translate(37.0489, 4.0000)" x="-0.0650" y="-0.8122" width="0.1300" height="4.3122" ry="0.0400" fill="currentColor"/>
<path transform="translate(24.3364, 2.5000) scale(0.0040, -0.0040)" d="M220 138c66 0 109 -37 109 -91c0 -90 -113 -185 -220 -185c-66 0 -109 37 -109 91c0 90 113 185 220 185z" fill="currentColor"/>
<rect transform="translate(24.4014, 4.0000)" x="-0.0650" y="-1.3122" width="0.1300" height="4.2062" ry="0.0400" fill="currentColor"/>
<path transform="translate(26.8525, 2.0000) scale(0.0040, -0.0040)" d="M220 138c66 0 109 -37 109 -91c0 -90 -113 -185 -220 -185c-66 0 -109 37 -109 91c0 90 113 185 220 185z" fill="currentColor"/>
<rect transform="translate(26.9175, 4.0000)" x="-0.0650" y="-1.8122" width="0.1300" height="4.7427" ry="0.0400" fill="currentColor"/>
<path transform="translate(29.3687, 1.5000) scale(0.0040, -0.0040)" d="M220 138c66 0 109 -37 109 -91c0 -90 -113 -185 -220 -185c-66 0 -109 37 -109 91c0 90 113 185 220 185z" fill="currentColor"/>
<rect transform="translate(29.4337, 4.0000)" x="-0.0650" y="-2.3122" width="0.1300" height="5.2793" ry="0.0400" fill="currentColor"/>
<path transform="translate(51.2584, 3.5000) scale(0.0040, -0.0040)" d="M220 138c66 0 109 -37 109 -91c0 -90 -113 -185 -220 -185c-66 0 -109 37 -109 91c0 90 113 185 220 185z" fill="currentColor"/>
<polygon transform="translate(34.1511, 6.6900)" stroke-linejoin="round" stroke-linecap="round" stroke-width="0.0800" fill="currentColor" stroke="currentColor" points="13.6876 -0.2000 13.6876 0.2000 0.0400 0.2000 0.0400 -0.2000"/>
<polygon transform="translate(34.1511, 7.5000)" stroke-linejoin="round" stroke-linecap="round" stroke-width="0.0800" fill="currentColor" stroke="currentColor" points="13.6876 -0.2000 13.6876 0.2000 0.0400 0.2000 0.0400 -0.2000"/>
<path transform="translate(51.2584, 4.0000)" stroke-linejoin="round" stroke-linecap="round" stroke="currentColor" fill="currentColor" stroke-width="0.0800" d="M28.4591 3.2000C25.6532 4.8443 3.3739 4.3236 0.6478 2.5500L0.6478 2.5500C3.3711 4.4436 25.6504 4.9643 28.4591 3.2000z"/>
<rect transform="translate(52.5096, 4.0000)" x="-0.0650" y="-2.8100" width="0.1300" height="2.1222" ry="0.0400" fill="currentColor"/>
<path transform="translate(53.5246, 6.0000) scale(0.0040, -0.0040)" d="M220 138c66 0 109 -37 109 -91c0 -90 -113 -185 -220 -185c-66 0 -109 37 -109 91c0 90 113 185 220 185z" fill="currentColor"/>
<path transform="translate(35.9672, 3.0000) scale(0.0040, -0.0040)" d="M-8 375c8 4 17 7 26 7s17 -3 25 -7l-3 -183l106 20h3c10 0 18 -7 18 -17l7 -570c-8 -4 -16 -7 -25 -7s-17 3 -25 7l3 183l-106 -20h-3c-10 0 -18 7 -18 17zM128 -95l3 207l-92 -17l-3 -207z" fill="currentColor"/>
<path transform="translate(39.5001, 2.5000) scale(0.0040, -0.0040)" d="M220 138c66 0 109 -37 109 -91c0 -90 -113 -185 -220 -185c-66 0 -109 37 -109 91c0 90 113 185 220 185z" fill="currentColor"/>
<rect transform="translate(39.5651, 4.0000)" x="-0.0650" y="-1.3122" width="0.1300" height="4.8122" ry="0.0400" fill="currentColor"/>
<path transform="translate(42.7163, 5.0000) scale(0.0040, -0.0040)" d="M220 138c66 0 109 -37 109 -91c0 -90 -113 -185 -220 -185c-66 0 -109 37 -109 91c0 90 113 185 220 185z" fill="currentColor"/>
<rect transform="translate(42.7813, 4.0000)" x="-0.0650" y="1.1878" width="0.1300" height="2.3122" ry="0.0400" fill="currentColor"/>
<path transform="translate(41.2663, 5.0000) scale(0.0040, -0.0040)" d="M216 -312c0 -10 -8 -19 -18 -19s-19 9 -19 19v145l-83 -31v-158c0 -10 -9 -19 -19 -19s-18 9 -18 19v145l-32 -12c-2 -1 -5 -1 -7 -1c-11 0 -20 9 -20 20v60c0 8 5 16 13 19l46 16v160l-32 -11c-2 -1 -5 -1 -7 -1c-11 0 -20 9 -20 20v60c0 8 5 15 13 18l46 17v158
c0 10 8 19 18 19s19 -9 19 -19v-145l83 31v158c0 10 9 19 19 19s18 -9 18 -19v-145l32 12c2 1 5 1 7 1c11 0 20 -9 20 -20v-60c0 -8 -5 -16 -13 -19l-46 -16v-160l32 11c2 1 5 1 7 1c11 0 20 -9 20 -20v-60c0 -8 -5 -15 -13 -18l-46 -17v-158zM179 95l-83 -30v-160l83 30
v160z" fill="currentColor"/>
<path transform="translate(45.2325, 4.5000) scale(0.0040, -0.0040)" d="M220 138c66 0 109 -37 109 -91c0 -90 -113 -185 -220 -185c-66 0 -109 37 -109 91c0 90 113 185 220 185z" fill="currentColor"/>
<rect transform="translate(45.2975, 4.0000)" x="-0.0650" y="0.6878" width="0.1300" height="2.8122" ry="0.0400" fill="currentColor"/>
<path transform="translate(47.7486, 4.0000) scale(0.0040, -0.0040)" d="M220 138c66 0 109 -37 109 -91c0 -90 -113 -185 -220 -185c-66 0 -109 37 -109 91c0 90 113 185 220 185z" fill="currentColor"/>
<rect transform="translate(47.8136, 4.0000)" x="-0.0650" y="0.1878" width="0.1300" height="3.3122" ry="0.0400" fill="currentColor"/>
</svg>
